<svg xmlns="http://www.w3.org/2000/svg" width="19.176" height="19.176" viewBox="0 0 19.176 19.176">
  <g id="fold_icon" transform="translate(-1516.545 -291.474)">
    <g id="inside" transform="translate(1535.72 301.063) rotate(135)">
      <path id="arrow_edge" d="M9.249,10.206H.957A.957.957,0,0,1,0,9.249V.957a.957.957,0,1,1,1.914,0V8.292H9.249a.957.957,0,1,1,0,1.914Zm0,0" transform="translate(0 3.353)" fill="#102334"/>
      <path id="arrow_core" d="M.957,13.559A.957.957,0,0,1,.28,11.924L11.925.28a.957.957,0,0,1,1.353,1.354L1.634,13.278a.954.954,0,0,1-.677.281Zm0,0" fill="#102334"/>
    </g>
  </g>
</svg>
